solid ascii
  facet normal -9.838572e-001 -1.789553e-001 0.000000e+000
    outer loop
      vertex   -6.388986e-001 5.393517e+000 6.000000e+000
      vertex   -6.388986e-001 5.393517e+000 0.000000e+000
      vertex   3.611014e-001 -1.042636e-001 6.000000e+000
    endloop
  endfacet
  facet normal -9.838572e-001 -1.789553e-001 0.000000e+000
    outer loop
      vertex   3.611014e-001 -1.042636e-001 6.000000e+000
      vertex   -6.388986e-001 5.393517e+000 0.000000e+000
      vertex   3.611014e-001 -1.042636e-001 0.000000e+000
    endloop
  endfacet
  facet normal -2.233253e-003 9.999975e-001 0.000000e+000
    outer loop
      vertex   1.636106e+001 5.431482e+000 6.000000e+000
      vertex   1.636106e+001 5.431482e+000 0.000000e+000
      vertex   -6.388986e-001 5.393517e+000 6.000000e+000
    endloop
  endfacet
  facet normal -2.233253e-003 9.999975e-001 0.000000e+000
    outer loop
      vertex   -6.388986e-001 5.393517e+000 6.000000e+000
      vertex   1.636106e+001 5.431482e+000 0.000000e+000
      vertex   -6.388986e-001 5.393517e+000 0.000000e+000
    endloop
  endfacet
  facet normal 9.838828e-001 -1.788147e-001 0.000000e+000
    outer loop
      vertex   1.536106e+001 -7.076477e-002 6.000000e+000
      vertex   1.536106e+001 -7.076477e-002 0.000000e+000
      vertex   1.636106e+001 5.431482e+000 6.000000e+000
    endloop
  endfacet
  facet normal 9.838828e-001 -1.788147e-001 0.000000e+000
    outer loop
      vertex   1.636106e+001 5.431482e+000 6.000000e+000
      vertex   1.536106e+001 -7.076477e-002 0.000000e+000
      vertex   1.636106e+001 5.431482e+000 0.000000e+000
    endloop
  endfacet
  facet normal 2.233253e-003 -9.999975e-001 0.000000e+000
    outer loop
      vertex   3.611014e-001 -1.042636e-001 6.000000e+000
      vertex   3.611014e-001 -1.042636e-001 0.000000e+000
      vertex   1.536106e+001 -7.076477e-002 6.000000e+000
    endloop
  endfacet
  facet normal 2.233253e-003 -9.999975e-001 0.000000e+000
    outer loop
      vertex   1.536106e+001 -7.076477e-002 6.000000e+000
      vertex   3.611014e-001 -1.042636e-001 0.000000e+000
      vertex   1.536106e+001 -7.076477e-002 0.000000e+000
    endloop
  endfacet
  facet normal 0.000000e+000 0.000000e+000 -1.000000e+000
    outer loop
      vertex   3.611014e-001 -1.042636e-001 0.000000e+000
      vertex   -6.388986e-001 5.393517e+000 0.000000e+000
      vertex   1.536106e+001 -7.076477e-002 0.000000e+000
    endloop
  endfacet
  facet normal 0.000000e+000 0.000000e+000 -1.000000e+000
    outer loop
      vertex   1.536106e+001 -7.076477e-002 0.000000e+000
      vertex   -6.388986e-001 5.393517e+000 0.000000e+000
      vertex   1.636106e+001 5.431482e+000 0.000000e+000
    endloop
  endfacet
  facet normal 0.000000e+000 0.000000e+000 1.000000e+000
    outer loop
      vertex   3.611014e-001 -1.042636e-001 6.000000e+000
      vertex   1.536106e+001 -7.076477e-002 6.000000e+000
      vertex   -6.388986e-001 5.393517e+000 6.000000e+000
    endloop
  endfacet
  facet normal 0.000000e+000 0.000000e+000 1.000000e+000
    outer loop
      vertex   -6.388986e-001 5.393517e+000 6.000000e+000
      vertex   1.536106e+001 -7.076477e-002 6.000000e+000
      vertex   1.636106e+001 5.431482e+000 6.000000e+000
    endloop
  endfacet
endsolid
